<svg width="115" height="108" viewBox="0 0 115 108" fill="none" xmlns="http://www.w3.org/2000/svg">
<path d="M29.75 60.2499V10.2499C29.75 8.59234 29.0915 7.00263 27.9194 5.83053C26.7473 4.65843 25.1576 3.99994 23.5 3.99994H11C9.3424 3.99994 7.75268 4.65843 6.58058 5.83053C5.40848 7.00263 4.75 8.59234 4.75 10.2499V53.9999C4.75 55.6575 5.40848 57.2473 6.58058 58.4194C7.75268 59.5915 9.3424 60.2499 11 60.2499H29.75ZM29.75 60.2499C36.3804 60.2499 42.7393 62.8839 47.4277 67.5723C52.1161 72.2607 54.75 78.6195 54.75 85.2499V91.4999C54.75 94.8151 56.067 97.9946 58.4112 100.339C60.7554 102.683 63.9348 104 67.25 104C70.5652 104 73.7446 102.683 76.0888 100.339C78.433 97.9946 79.75 94.8151 79.75 91.4999V60.2499H98.5C101.815 60.2499 104.995 58.933 107.339 56.5888C109.683 54.2446 111 51.0651 111 47.7499L104.75 16.4999C103.851 12.6657 102.146 9.37342 99.8916 7.11892C97.6371 4.86441 94.9552 3.7698 92.25 3.99994H48.5C43.5272 3.99994 38.7581 5.97539 35.2417 9.49169C31.7254 13.008 29.75 17.7771 29.75 22.7499" stroke="url(#paint0_linear_150_1045)" stroke-width="7.65092" stroke-linecap="round" stroke-linejoin="round"/>
<defs>
<linearGradient id="paint0_linear_150_1045" x1="57.875" y1="3.96985" x2="57.875" y2="104" gradientUnits="userSpaceOnUse">
<stop stop-color="#FF0000"/>
<stop offset="1" stop-color="#D286F5"/>
</linearGradient>
</defs>
</svg>
