<svg width="111" height="103" viewBox="0 0 111 103" fill="none" xmlns="http://www.w3.org/2000/svg">
<path d="M26.9395 58.0961V7.38481C26.9395 5.70363 26.2644 4.0913 25.0628 2.90253C23.8613 1.71375 22.2315 1.0459 20.5322 1.0459H7.71778C6.01848 1.0459 4.38877 1.71375 3.18718 2.90253C1.98559 4.0913 1.31055 5.70363 1.31055 7.38481V51.7572C1.31055 53.4383 1.98559 55.0507 3.18718 56.2394C4.38877 57.4282 6.01848 58.0961 7.71778 58.0961H26.9395C33.7367 58.0961 40.2555 60.7675 45.0619 65.5226C49.8682 70.2777 52.5684 76.727 52.5684 83.4517V89.7906C52.5684 93.153 53.9185 96.3776 56.3217 98.7552C58.7249 101.133 61.9843 102.468 65.3829 102.468C68.7815 102.468 72.0409 101.133 74.4441 98.7552C76.8472 96.3776 78.1973 93.153 78.1973 89.7906V58.0961H97.419C100.818 58.0961 104.077 56.7604 106.48 54.3828C108.883 52.0053 110.233 48.7806 110.233 45.4183L103.826 13.7237C102.905 9.83496 101.157 6.49582 98.8456 4.20925C96.5344 1.92267 93.7851 0.812485 91.0118 1.0459H46.1612C41.0633 1.0459 36.1741 3.04945 32.5694 6.61577C28.9646 10.1821 26.9395 15.0191 26.9395 20.0626" fill="url(#paint0_linear_142_675)"/>
<path d="M26.9395 58.0961V7.38481C26.9395 5.70363 26.2644 4.0913 25.0628 2.90253C23.8613 1.71375 22.2315 1.0459 20.5322 1.0459H7.71778C6.01848 1.0459 4.38877 1.71375 3.18718 2.90253C1.98559 4.0913 1.31055 5.70363 1.31055 7.38481V51.7572C1.31055 53.4383 1.98559 55.0507 3.18718 56.2394C4.38877 57.4282 6.01848 58.0961 7.71778 58.0961H26.9395ZM26.9395 58.0961C33.7367 58.0961 40.2555 60.7675 45.0619 65.5226C49.8682 70.2777 52.5684 76.727 52.5684 83.4517V89.7906C52.5684 93.153 53.9185 96.3776 56.3217 98.7552C58.7249 101.133 61.9843 102.468 65.3829 102.468C68.7815 102.468 72.0409 101.133 74.4441 98.7552C76.8472 96.3776 78.1973 93.153 78.1973 89.7906V58.0961H97.419C100.818 58.0961 104.077 56.7604 106.48 54.3828C108.883 52.0053 110.233 48.7806 110.233 45.4183L103.826 13.7237C102.905 9.83496 101.157 6.49582 98.8456 4.20925C96.5344 1.92267 93.7851 0.812485 91.0118 1.0459H46.1612C41.0633 1.0459 36.1741 3.04945 32.5694 6.61577C28.9646 10.1821 26.9395 15.0191 26.9395 20.0626" stroke="url(#paint1_linear_142_675)" stroke-linecap="round" stroke-linejoin="round"/>
<defs>
<linearGradient id="paint0_linear_142_675" x1="111.99" y1="9.71136" x2="5.56529" y2="115.423" gradientUnits="userSpaceOnUse">
<stop stop-color="#FF0000"/>
<stop offset="1" stop-color="#D286F5"/>
</linearGradient>
<linearGradient id="paint1_linear_142_675" x1="111.99" y1="9.71136" x2="5.56529" y2="115.423" gradientUnits="userSpaceOnUse">
<stop stop-color="#FF0000"/>
<stop offset="1" stop-color="#D286F5"/>
</linearGradient>
</defs>
</svg>
