<svg width="212" height="35" viewBox="0 0 212 35" fill="none" xmlns="http://www.w3.org/2000/svg">
<path d="M48.4244 27.2844C47.2108 27.2844 46.0825 27.1138 45.0395 26.7724C44.0155 26.4121 43.1243 25.9096 42.3658 25.2649C41.6073 24.6201 41.0289 23.8711 40.6307 23.0178C40.479 22.7144 40.4695 22.4394 40.6022 22.1929C40.7539 21.9274 41.0004 21.7473 41.3418 21.6524C41.6073 21.5766 41.8633 21.605 42.1098 21.7378C42.3753 21.8705 42.5744 22.0696 42.7071 22.3351C42.9915 22.885 43.4087 23.3781 43.9587 23.8142C44.5086 24.2504 45.1628 24.5917 45.9213 24.8382C46.6798 25.0658 47.5142 25.1796 48.4244 25.1796C49.4295 25.1796 50.3207 25.0184 51.0982 24.696C51.8757 24.3547 52.4825 23.8711 52.9187 23.2453C53.3738 22.6006 53.6013 21.8231 53.6013 20.9129C53.6013 19.7561 53.1747 18.7606 52.3213 17.9262C51.468 17.0919 50.1311 16.5609 48.3107 16.3333C46.092 16.0679 44.3569 15.3852 43.1053 14.2853C41.8538 13.1665 41.228 11.8012 41.228 10.1893C41.228 9.03259 41.5314 8.02755 42.1382 7.17422C42.764 6.32089 43.6173 5.66666 44.6982 5.21155C45.7791 4.73748 47.0212 4.50044 48.4244 4.50044C49.4674 4.50044 50.4155 4.67111 51.2689 5.01244C52.1222 5.33481 52.8618 5.77096 53.4875 6.32089C54.1323 6.85185 54.6538 7.4397 55.052 8.08444C55.2416 8.38785 55.2985 8.68178 55.2227 8.96622C55.1658 9.25066 55.0046 9.46874 54.7391 9.62044C54.4547 9.75318 54.1607 9.77215 53.8573 9.67733C53.5729 9.58252 53.3548 9.40237 53.2031 9.13689C52.9187 8.70074 52.5584 8.29304 52.1222 7.91378C51.705 7.51555 51.193 7.20266 50.5862 6.97511C49.9794 6.74755 49.2493 6.62429 48.396 6.60533C46.8979 6.60533 45.6938 6.9277 44.7835 7.57244C43.8733 8.19822 43.4182 9.11792 43.4182 10.3316C43.4182 10.9763 43.5889 11.5736 43.9302 12.1236C44.2715 12.6545 44.831 13.1191 45.6084 13.5173C46.4049 13.8966 47.4668 14.181 48.7942 14.3707C51.1646 14.712 52.9187 15.4421 54.0564 16.5609C55.2132 17.6607 55.7916 19.1019 55.7916 20.8844C55.7916 21.9084 55.6019 22.8187 55.2227 23.6151C54.8624 24.4116 54.3409 25.0847 53.6582 25.6347C52.9945 26.1656 52.2076 26.5733 51.2973 26.8578C50.4061 27.1422 49.4484 27.2844 48.4244 27.2844ZM66.8027 27.1422C65.2856 27.1422 63.9298 26.8009 62.7351 26.1182C61.5404 25.4356 60.6018 24.4969 59.9191 23.3022C59.2364 22.1076 58.8951 20.7517 58.8951 19.2347C58.8951 17.6987 59.2364 16.3333 59.9191 15.1387C60.6018 13.944 61.5404 13.0053 62.7351 12.3227C63.9298 11.64 65.2856 11.2987 66.8027 11.2987C68.3197 11.2987 69.6661 11.64 70.8418 12.3227C72.0364 13.0053 72.9751 13.944 73.6578 15.1387C74.3404 16.3333 74.6913 17.6987 74.7102 19.2347C74.7102 20.7517 74.3594 22.1076 73.6578 23.3022C72.9751 24.4969 72.0364 25.4356 70.8418 26.1182C69.6661 26.8009 68.3197 27.1422 66.8027 27.1422ZM66.8027 25.1511C67.9025 25.1511 68.8886 24.8951 69.7609 24.3831C70.6332 23.8711 71.3158 23.1695 71.8089 22.2782C72.3019 21.387 72.5484 20.3724 72.5484 19.2347C72.5484 18.0969 72.3019 17.0824 71.8089 16.1911C71.3158 15.2809 70.6332 14.5698 69.7609 14.0578C68.8886 13.5458 67.9025 13.2898 66.8027 13.2898C65.7028 13.2898 64.7167 13.5458 63.8444 14.0578C62.9721 14.5698 62.28 15.2809 61.768 16.1911C61.275 17.0824 61.0284 18.0969 61.0284 19.2347C61.0284 20.3724 61.275 21.387 61.768 22.2782C62.28 23.1695 62.9721 23.8711 63.8444 24.3831C64.7167 24.8951 65.7028 25.1511 66.8027 25.1511ZM85.3131 27.1707C83.9667 27.1707 82.7626 26.8957 81.7007 26.3458C80.6387 25.7769 79.7949 24.952 79.1691 23.8711C78.5623 22.7902 78.2589 21.4723 78.2589 19.9173V12.5218C78.2589 12.2184 78.3632 11.9624 78.5718 11.7538C78.7804 11.5452 79.0364 11.4409 79.3398 11.4409C79.6621 11.4409 79.9276 11.5452 80.1362 11.7538C80.3448 11.9624 80.4491 12.2184 80.4491 12.5218V19.9173C80.4491 21.093 80.6672 22.0601 81.1033 22.8187C81.5584 23.5772 82.1653 24.1461 82.9238 24.5253C83.7013 24.9046 84.5736 25.0942 85.5407 25.0942C86.4698 25.0942 87.3042 24.9141 88.0438 24.5538C88.8023 24.1935 89.3996 23.7004 89.8358 23.0747C90.2719 22.4489 90.49 21.7378 90.49 20.9413H92.0544C91.9976 22.136 91.6657 23.2074 91.0589 24.1556C90.471 25.0847 89.6746 25.8243 88.6696 26.3742C87.6645 26.9052 86.5457 27.1707 85.3131 27.1707ZM91.5709 27C91.2485 27 90.983 26.9052 90.7744 26.7156C90.5848 26.507 90.49 26.232 90.49 25.8907V12.5218C90.49 12.1994 90.5848 11.9434 90.7744 11.7538C90.983 11.5452 91.2485 11.4409 91.5709 11.4409C91.8933 11.4409 92.1587 11.5452 92.3673 11.7538C92.5759 11.9434 92.6802 12.1994 92.6802 12.5218V25.8907C92.6802 26.232 92.5759 26.507 92.3673 26.7156C92.1587 26.9052 91.8933 27 91.5709 27ZM110.707 27C110.385 27 110.119 26.8957 109.911 26.6871C109.702 26.4785 109.598 26.2225 109.598 25.9191V18.5236C109.598 17.3479 109.37 16.3807 108.915 15.6222C108.479 14.8637 107.872 14.2948 107.095 13.9156C106.336 13.5363 105.473 13.3467 104.506 13.3467C103.577 13.3467 102.733 13.5268 101.975 13.8871C101.235 14.2474 100.647 14.7404 100.211 15.3662C99.775 15.992 99.5569 16.7031 99.5569 17.4996H97.9924C98.0304 16.3049 98.3527 15.243 98.9596 14.3138C99.5664 13.3656 100.372 12.6261 101.377 12.0951C102.382 11.5452 103.501 11.2702 104.734 11.2702C106.08 11.2702 107.284 11.5547 108.346 12.1236C109.408 12.6735 110.243 13.4889 110.849 14.5698C111.475 15.6507 111.788 16.9686 111.788 18.5236V25.9191C111.788 26.2225 111.684 26.4785 111.475 26.6871C111.267 26.8957 111.011 27 110.707 27ZM98.476 27C98.1347 27 97.8597 26.9052 97.6511 26.7156C97.4615 26.507 97.3667 26.2415 97.3667 25.9191V12.5502C97.3667 12.2089 97.4615 11.9434 97.6511 11.7538C97.8597 11.5452 98.1347 11.4409 98.476 11.4409C98.7984 11.4409 99.0544 11.5452 99.244 11.7538C99.4526 11.9434 99.5569 12.2089 99.5569 12.5502V25.9191C99.5569 26.2415 99.4526 26.507 99.244 26.7156C99.0544 26.9052 98.7984 27 98.476 27ZM123.273 27.1422C121.775 27.1422 120.428 26.8009 119.234 26.1182C118.039 25.4166 117.091 24.4684 116.389 23.2738C115.706 22.0791 115.365 20.7233 115.365 19.2062C115.365 17.7081 115.697 16.3618 116.361 15.1671C117.043 13.9724 117.963 13.0338 119.12 12.3511C120.277 11.6495 121.585 11.2987 123.045 11.2987C124.316 11.2987 125.463 11.5736 126.487 12.1236C127.511 12.6545 128.336 13.3656 128.962 14.2569V5.89422C128.962 5.55289 129.066 5.2874 129.274 5.09777C129.483 4.88918 129.749 4.78489 130.071 4.78489C130.393 4.78489 130.659 4.88918 130.867 5.09777C131.076 5.2874 131.18 5.55289 131.18 5.89422V19.32C131.142 20.7991 130.773 22.136 130.071 23.3307C129.388 24.5064 128.45 25.4356 127.255 26.1182C126.079 26.8009 124.752 27.1422 123.273 27.1422ZM123.273 25.1511C124.373 25.1511 125.349 24.8951 126.202 24.3831C127.075 23.8521 127.757 23.141 128.25 22.2498C128.762 21.3585 129.018 20.344 129.018 19.2062C129.018 18.0874 128.762 17.0824 128.25 16.1911C127.757 15.2809 127.075 14.5698 126.202 14.0578C125.349 13.5458 124.373 13.2898 123.273 13.2898C122.192 13.2898 121.215 13.5458 120.343 14.0578C119.471 14.5698 118.778 15.2809 118.266 16.1911C117.754 17.0824 117.498 18.0874 117.498 19.2062C117.498 20.344 117.754 21.3585 118.266 22.2498C118.778 23.141 119.471 23.8521 120.343 24.3831C121.215 24.8951 122.192 25.1511 123.273 25.1511ZM137.268 27C136.965 27 136.699 26.8957 136.472 26.6871C136.263 26.4785 136.159 26.213 136.159 25.8907V5.89422C136.159 5.59081 136.263 5.33481 136.472 5.12622C136.699 4.89866 136.965 4.78489 137.268 4.78489C137.572 4.78489 137.828 4.89866 138.036 5.12622C138.264 5.33481 138.378 5.59081 138.378 5.89422V24.8951H149.499C149.803 24.8951 150.059 24.9994 150.267 25.208C150.495 25.3976 150.609 25.6441 150.609 25.9476C150.609 26.251 150.495 26.507 150.267 26.7156C150.059 26.9052 149.803 27 149.499 27H137.268ZM160.53 27.1422C159.013 27.1422 157.658 26.8009 156.463 26.1182C155.268 25.4356 154.33 24.4969 153.647 23.3022C152.964 22.1076 152.623 20.7517 152.623 19.2347C152.623 17.6987 152.964 16.3333 153.647 15.1387C154.33 13.944 155.268 13.0053 156.463 12.3227C157.658 11.64 159.013 11.2987 160.53 11.2987C162.047 11.2987 163.394 11.64 164.57 12.3227C165.764 13.0053 166.703 13.944 167.386 15.1387C168.068 16.3333 168.419 17.6987 168.438 19.2347C168.438 20.7517 168.087 22.1076 167.386 23.3022C166.703 24.4969 165.764 25.4356 164.57 26.1182C163.394 26.8009 162.047 27.1422 160.53 27.1422ZM160.53 25.1511C161.63 25.1511 162.616 24.8951 163.489 24.3831C164.361 23.8711 165.044 23.1695 165.537 22.2782C166.03 21.387 166.276 20.3724 166.276 19.2347C166.276 18.0969 166.03 17.0824 165.537 16.1911C165.044 15.2809 164.361 14.5698 163.489 14.0578C162.616 13.5458 161.63 13.2898 160.53 13.2898C159.431 13.2898 158.445 13.5458 157.572 14.0578C156.7 14.5698 156.008 15.2809 155.496 16.1911C155.003 17.0824 154.756 18.0969 154.756 19.2347C154.756 20.3724 155.003 21.387 155.496 22.2782C156.008 23.1695 156.7 23.8711 157.572 24.3831C158.445 24.8951 159.431 25.1511 160.53 25.1511ZM179.126 27.1422C177.628 27.1422 176.301 26.8104 175.144 26.1467C173.987 25.464 173.077 24.5253 172.413 23.3307C171.769 22.136 171.446 20.7707 171.446 19.2347C171.446 17.6797 171.788 16.3049 172.47 15.1102C173.153 13.9156 174.092 12.9864 175.286 12.3227C176.481 11.64 177.837 11.2987 179.354 11.2987C180.89 11.2987 182.246 11.64 183.421 12.3227C184.616 12.9864 185.545 13.9156 186.209 15.1102C186.892 16.3049 187.242 17.6797 187.261 19.2347L185.981 19.9173C185.981 21.3206 185.687 22.5721 185.1 23.672C184.512 24.7529 183.696 25.6062 182.653 26.232C181.629 26.8388 180.454 27.1422 179.126 27.1422ZM179.411 33.144C177.913 33.144 176.595 32.8596 175.457 32.2907C174.319 31.7407 173.38 30.9822 172.641 30.0151C172.432 29.7876 172.337 29.541 172.356 29.2756C172.394 29.0101 172.537 28.792 172.783 28.6213C173.03 28.4507 173.305 28.3938 173.608 28.4507C173.911 28.5076 174.148 28.6498 174.319 28.8773C174.869 29.56 175.571 30.1099 176.424 30.5271C177.296 30.9443 178.301 31.1529 179.439 31.1529C180.501 31.1529 181.459 30.8969 182.312 30.3849C183.165 29.8729 183.839 29.1523 184.332 28.2231C184.844 27.2939 185.1 26.2036 185.1 24.952V20.6284L185.924 18.9787L187.261 19.2347V25.0373C187.261 26.5733 186.92 27.9481 186.237 29.1618C185.555 30.3944 184.625 31.3615 183.45 32.0631C182.274 32.7837 180.928 33.144 179.411 33.144ZM179.354 25.1511C180.473 25.1511 181.459 24.9046 182.312 24.4116C183.184 23.8996 183.867 23.1979 184.36 22.3067C184.853 21.4154 185.1 20.3914 185.1 19.2347C185.1 18.0779 184.853 17.0539 184.36 16.1627C183.867 15.2524 183.184 14.5508 182.312 14.0578C181.459 13.5458 180.473 13.2898 179.354 13.2898C178.235 13.2898 177.239 13.5458 176.367 14.0578C175.495 14.5508 174.812 15.2524 174.319 16.1627C173.826 17.0539 173.58 18.0779 173.58 19.2347C173.58 20.3914 173.826 21.4154 174.319 22.3067C174.812 23.1979 175.495 23.8996 176.367 24.4116C177.239 24.9046 178.235 25.1511 179.354 25.1511ZM192.659 27C192.318 27 192.043 26.9052 191.834 26.7156C191.644 26.507 191.55 26.232 191.55 25.8907V12.5502C191.55 12.2089 191.644 11.9434 191.834 11.7538C192.043 11.5452 192.318 11.4409 192.659 11.4409C192.981 11.4409 193.237 11.5452 193.427 11.7538C193.635 11.9434 193.74 12.2089 193.74 12.5502V25.8907C193.74 26.232 193.635 26.507 193.427 26.7156C193.237 26.9052 192.981 27 192.659 27ZM192.63 8.48266C192.213 8.48266 191.853 8.33096 191.55 8.02755C191.246 7.72415 191.094 7.35437 191.094 6.91822C191.094 6.44415 191.246 6.07437 191.55 5.80889C191.872 5.52444 192.242 5.38222 192.659 5.38222C193.057 5.38222 193.408 5.52444 193.711 5.80889C194.034 6.07437 194.195 6.44415 194.195 6.91822C194.195 7.35437 194.043 7.72415 193.74 8.02755C193.436 8.33096 193.067 8.48266 192.63 8.48266ZM205.83 27.1422C204.332 27.1422 202.995 26.8009 201.82 26.1182C200.663 25.4166 199.743 24.4684 199.061 23.2738C198.397 22.0791 198.065 20.7327 198.065 19.2347C198.065 17.7176 198.387 16.3618 199.032 15.1671C199.677 13.9724 200.559 13.0338 201.678 12.3511C202.796 11.6495 204.086 11.2987 205.546 11.2987C206.703 11.2987 207.765 11.5262 208.732 11.9813C209.718 12.4364 210.581 13.1191 211.32 14.0293C211.529 14.2569 211.605 14.5034 211.548 14.7689C211.491 15.0154 211.33 15.2335 211.064 15.4231C210.856 15.5748 210.619 15.6317 210.353 15.5938C210.107 15.5369 209.889 15.3947 209.699 15.1671C208.599 13.9156 207.215 13.2898 205.546 13.2898C204.484 13.2898 203.545 13.5458 202.73 14.0578C201.934 14.5698 201.308 15.2714 200.853 16.1627C200.417 17.0539 200.198 18.0779 200.198 19.2347C200.198 20.3724 200.435 21.387 200.91 22.2782C201.384 23.1695 202.047 23.8711 202.901 24.3831C203.754 24.8951 204.731 25.1511 205.83 25.1511C206.57 25.1511 207.243 25.0563 207.85 24.8667C208.476 24.6581 209.026 24.3452 209.5 23.928C209.727 23.7384 209.964 23.6341 210.211 23.6151C210.457 23.5961 210.685 23.672 210.894 23.8427C211.121 24.0513 211.244 24.2883 211.263 24.5538C211.301 24.8193 211.216 25.0468 211.007 25.2364C209.623 26.507 207.897 27.1422 205.83 27.1422Z" fill="black"/>
<rect x="11" width="5" height="35" rx="2.5" fill="url(#paint0_linear_228_708)"/>
<rect x="3" y="5" width="4" height="25" rx="2" fill="url(#paint1_linear_228_708)"/>
<rect x="29" width="5" height="35" rx="2.5" fill="url(#paint2_linear_228_708)"/>
<rect x="20" y="3" width="5" height="30" rx="2.5" fill="url(#paint3_linear_228_708)"/>
<defs>
<linearGradient id="paint0_linear_228_708" x1="16.0806" y1="3" x2="6.54185" y2="4.26073" gradientUnits="userSpaceOnUse">
<stop stop-color="#FF0000"/>
<stop offset="1" stop-color="#D286F5"/>
</linearGradient>
<linearGradient id="paint1_linear_228_708" x1="7.06452" y1="7.14286" x2="-0.533333" y2="8.26756" gradientUnits="userSpaceOnUse">
<stop stop-color="#FF0000"/>
<stop offset="1" stop-color="#D286F5"/>
</linearGradient>
<linearGradient id="paint2_linear_228_708" x1="34.0806" y1="3" x2="24.5419" y2="4.26073" gradientUnits="userSpaceOnUse">
<stop stop-color="#FF0000"/>
<stop offset="1" stop-color="#D286F5"/>
</linearGradient>
<linearGradient id="paint3_linear_228_708" x1="25.0806" y1="5.57143" x2="15.6006" y2="7.03322" gradientUnits="userSpaceOnUse">
<stop stop-color="#FF0000"/>
<stop offset="1" stop-color="#D286F5"/>
</linearGradient>
</defs>
</svg>
